REM DIRINDEX 1\4,1\2\5,1\2\6,1\3\7,1\3\8
REM DIRNAME folder01,folder02,folder03,folder04,folder05,folder06,folder07,folder08
TITLE ""
FILE "043_Day22_Check2_Phrases.mp3" MP3
  TRACK 01 AUDIO
    TITLE "0:"
    INDEX 01 00:00:00
  TRACK 02 AUDIO
    TITLE "4:cjc124_1389"
    INDEX 01 00:00:31
  TRACK 03 AUDIO
    TITLE "0:"
    INDEX 01 00:01:46
  TRACK 04 AUDIO
    TITLE "5:cjc124_1390"
    INDEX 01 00:02:02
  TRACK 05 AUDIO
    TITLE "0:"
    INDEX 01 00:03:49
  TRACK 06 AUDIO
    TITLE "6:cjc124_1391"
    INDEX 01 00:03:64
  TRACK 07 AUDIO
    TITLE "0:"
    INDEX 01 00:05:20
  TRACK 08 AUDIO
    TITLE "5:cjc124_1392"
    INDEX 01 00:05:63
  TRACK 09 AUDIO
    TITLE "0:"
    INDEX 01 00:07:19
  TRACK 10 AUDIO
    TITLE "6:cjc124_1393"
    INDEX 01 00:07:45
  TRACK 11 AUDIO
    TITLE "0:"
    INDEX 01 00:09:08
  TRACK 12 AUDIO
    TITLE "5:cjc124_1394"
    INDEX 01 00:09:45
  TRACK 13 AUDIO
    TITLE "0:"
    INDEX 01 00:11:44
  TRACK 14 AUDIO
    TITLE "6:cjc124_1395"
    INDEX 01 00:11:60
  TRACK 15 AUDIO
    TITLE "0:"
    INDEX 01 00:13:02
  TRACK 16 AUDIO
    TITLE "5:cjc124_1396"
    INDEX 01 00:13:45
  TRACK 17 AUDIO
    TITLE "0:"
    INDEX 01 00:15:28
  TRACK 18 AUDIO
    TITLE "6:cjc124_1397"
    INDEX 01 00:15:52
  TRACK 19 AUDIO
    TITLE "0:"
    INDEX 01 00:17:55
  TRACK 20 AUDIO
    TITLE "5:cjc124_1398"
    INDEX 01 00:18:17
  TRACK 21 AUDIO
    TITLE "0:"
    INDEX 01 00:20:14
  TRACK 22 AUDIO
    TITLE "6:cjc124_1399"
    INDEX 01 00:20:30
  TRACK 23 AUDIO
    TITLE "0:"
    INDEX 01 00:21:57
  TRACK 24 AUDIO
    TITLE "5:cjc124_1400"
    INDEX 01 00:22:19
  TRACK 25 AUDIO
    TITLE "0:"
    INDEX 01 00:23:67
  TRACK 26 AUDIO
    TITLE "6:cjc124_1401"
    INDEX 01 00:24:06
  TRACK 27 AUDIO
    TITLE "0:"
    INDEX 01 00:25:50
  TRACK 28 AUDIO
    TITLE "5:cjc124_1402"
    INDEX 01 00:26:13
  TRACK 29 AUDIO
    TITLE "0:"
    INDEX 01 00:28:41
  TRACK 30 AUDIO
    TITLE "6:cjc124_1403"
    INDEX 01 00:28:57
  TRACK 31 AUDIO
    TITLE "0:"
    INDEX 01 00:30:63
  TRACK 32 AUDIO
    TITLE "5:cjc124_1404"
    INDEX 01 00:31:31
  TRACK 33 AUDIO
    TITLE "0:"
    INDEX 01 00:33:24
  TRACK 34 AUDIO
    TITLE "6:cjc124_1405"
    INDEX 01 00:33:38
  TRACK 35 AUDIO
    TITLE "0:"
    INDEX 01 00:35:19
  TRACK 36 AUDIO
    TITLE "5:cjc124_1406"
    INDEX 01 00:35:57
  TRACK 37 AUDIO
    TITLE "0:"
    INDEX 01 00:37:12
  TRACK 38 AUDIO
    TITLE "6:cjc124_1407"
    INDEX 01 00:37:30
  TRACK 39 AUDIO
    TITLE "0:"
    INDEX 01 00:38:63
  TRACK 40 AUDIO
    TITLE "5:cjc124_1408"
    INDEX 01 00:39:25
  TRACK 41 AUDIO
    TITLE "0:"
    INDEX 01 00:41:14
  TRACK 42 AUDIO
    TITLE "6:cjc124_1409"
    INDEX 01 00:41:30
  TRACK 43 AUDIO
    TITLE "0:"
    INDEX 01 00:43:25
  TRACK 44 AUDIO
    TITLE "5:cjc124_1410"
    INDEX 01 00:43:62
  TRACK 45 AUDIO
    TITLE "0:"
    INDEX 01 00:45:30
  TRACK 46 AUDIO
    TITLE "6:cjc124_1411"
    INDEX 01 00:45:45
  TRACK 47 AUDIO
    TITLE "0:"
    INDEX 01 00:46:56
  TRACK 48 AUDIO
    TITLE "5:cjc124_1412"
    INDEX 01 00:47:21
  TRACK 49 AUDIO
    TITLE "0:"
    INDEX 01 00:48:42
  TRACK 50 AUDIO
    TITLE "6:cjc124_1413"
    INDEX 01 00:49:04
  TRACK 51 AUDIO
    TITLE "0:"
    INDEX 01 00:50:35
  TRACK 52 AUDIO
    TITLE "5:cjc124_1414"
    INDEX 01 00:50:72
  TRACK 53 AUDIO
    TITLE "0:"
    INDEX 01 00:52:55
  TRACK 54 AUDIO
    TITLE "6:cjc124_1415"
    INDEX 01 00:52:73
  TRACK 55 AUDIO
    TITLE "0:"
    INDEX 01 00:54:23
  TRACK 56 AUDIO
    TITLE "5:cjc124_1416"
    INDEX 01 00:54:60
  TRACK 57 AUDIO
    TITLE "0:"
    INDEX 01 00:56:16
  TRACK 58 AUDIO
    TITLE "6:cjc124_1417"
    INDEX 01 00:56:41
  TRACK 59 AUDIO
    TITLE "0:"
    INDEX 01 00:57:60
  TRACK 60 AUDIO
    TITLE "5:cjc124_1418"
    INDEX 01 00:58:24
  TRACK 61 AUDIO
    TITLE "0:"
    INDEX 01 00:59:65
  TRACK 62 AUDIO
    TITLE "6:cjc124_1419"
    INDEX 01 01:00:23
  TRACK 63 AUDIO
    TITLE "0:"
    INDEX 01 01:02:26
  TRACK 64 AUDIO
    TITLE "5:cjc124_1420"
    INDEX 01 01:02:69
  TRACK 65 AUDIO
    TITLE "0:"
    INDEX 01 01:04:33
  TRACK 66 AUDIO
    TITLE "6:cjc124_1421"
    INDEX 01 01:04:60
  TRACK 67 AUDIO
    TITLE "0:"
    INDEX 01 01:06:18
